<svg width="16" height="16" viewBox="0 0 16 16" fill="none" xmlns="http://www.w3.org/2000/svg">
<g id="verified">
<path id="Subtract" fill-rule="evenodd" clip-rule="evenodd" d="M7.4296 1.43957C8.01539 0.853779 8.96513 0.85378 9.55092 1.43957L10.3472 2.23583C10.6222 2.51088 10.9934 2.66832 11.3823 2.67495L12.6976 2.69736C13.506 2.71113 14.158 3.36317 14.1718 4.17159L14.1942 5.48688C14.2008 5.8758 14.3583 6.24694 14.6333 6.52198L15.5293 7.41791C16.0746 7.9633 16.1175 8.83338 15.6284 9.42976L14.4873 10.8213C14.2673 11.0895 14.1471 11.4256 14.1471 11.7725V12.5358C14.1471 13.3642 13.4755 14.0358 12.6471 14.0358H11.4082C11.0039 14.0358 10.6168 14.1989 10.3345 14.4883L9.564 15.2782C8.97535 15.8816 8.00517 15.8816 7.41652 15.2782L6.64603 14.4883C6.36373 14.1989 5.97657 14.0358 5.57229 14.0358H4.30295C3.48651 14.0358 2.82001 13.3828 2.80327 12.5665L2.78641 11.7449C2.77964 11.4149 2.66422 11.0964 2.45803 10.8386L1.32895 9.42727C0.851482 8.83044 0.899136 7.97003 1.43959 7.42957L2.34718 6.52198C2.62223 6.24694 2.77968 5.8758 2.7863 5.48688L2.80871 4.17159C2.82248 3.36317 3.47452 2.71113 4.28294 2.69736L5.59823 2.67495C5.98715 2.66832 6.35829 2.51088 6.63334 2.23583L7.4296 1.43957ZM8.49048 3.97913C8.98753 3.97913 9.39048 4.38208 9.39048 4.87913L9.39048 8.37913C9.39048 8.87619 8.98754 9.27913 8.49048 9.27913C7.99342 9.27913 7.59048 8.87619 7.59048 8.37913L7.59048 4.87913C7.59048 4.38208 7.99342 3.97913 8.49048 3.97913ZM8.49087 12.5791C9.09838 12.5791 9.59087 12.0866 9.59087 11.4791C9.59087 10.8716 9.09838 10.3791 8.49087 10.3791C7.88336 10.3791 7.39087 10.8716 7.39087 11.4791C7.39087 12.0866 7.88336 12.5791 8.49087 12.5791Z" fill="#DB5C5C"/>
</g>
</svg>
