<svg width="16" height="16" viewBox="0 0 16 16" fill="none" xmlns="http://www.w3.org/2000/svg">
<g id="verified_dark">
<path id="Subtract" fill-rule="evenodd" clip-rule="evenodd" d="M9.06044 1.06043C8.47465 0.474647 7.52491 0.474647 6.93912 1.06043L6.14286 1.8567C5.86781 2.13174 5.49667 2.28919 5.10775 2.29582L3.79246 2.31822C2.98404 2.332 2.332 2.98403 2.31823 3.79246L2.29582 5.10774C2.2892 5.49666 2.13175 5.8678 1.8567 6.14285L0.949116 7.05044C0.408657 7.5909 0.361004 8.4513 0.838473 9.04814L1.96755 10.4595C2.17374 10.7172 2.28916 11.0358 2.29593 11.3658L2.31279 12.1874C2.32953 13.0037 2.99603 13.6566 3.81247 13.6566H5.08182C5.48609 13.6566 5.87325 13.8198 6.15555 14.1092L6.92604 14.8991C7.51469 15.5025 8.48487 15.5025 9.07352 14.8991L9.84401 14.1092C10.1263 13.8198 10.5135 13.6566 10.9177 13.6566H12.1566C12.9851 13.6566 13.6566 12.9851 13.6566 12.1566V11.3933C13.6566 11.0465 13.7768 10.7103 13.9968 10.4421L15.138 9.05063C15.6271 8.45425 15.5842 7.58416 15.0388 7.03878L14.1429 6.14285C13.8678 5.8678 13.7104 5.49666 13.7037 5.10774L13.6813 3.79246C13.6676 2.98403 13.0155 2.332 12.2071 2.31822L10.8918 2.29582C10.5029 2.28919 10.1318 2.13174 9.8567 1.8567L9.06044 1.06043ZM11.1763 6.35241C11.3574 6.15665 11.353 5.85318 11.1663 5.66276L10.8837 5.37453C10.6837 5.17057 10.3537 5.17534 10.1597 5.38501L7.24378 8.53609C7.04587 8.74997 6.70773 8.74997 6.50982 8.53609L5.82351 7.79444C5.6256 7.58057 5.28746 7.58057 5.08955 7.79444L4.81402 8.09219C4.63666 8.28385 4.63666 8.57972 4.81402 8.77138L6.50911 10.6032C6.70702 10.8171 7.04517 10.817 7.24308 10.6032L11.1763 6.35241Z" fill="#5FAD65"/>
</g>
</svg>
