<svg width="16" height="14" viewBox="0 0 16 14" fill="none" xmlns="http://www.w3.org/2000/svg">
<g id="verified">
<path id="Subtract" fill-rule="evenodd" clip-rule="evenodd" d="M6.93936 1.06066C7.52515 0.474872 8.4749 0.474873 9.06068 1.06066L9.85695 1.85692C10.132 2.13197 10.5031 2.28942 10.8921 2.29604L12.2073 2.31845C13.0158 2.33222 13.6678 2.98426 13.6816 3.79268L13.704 5.10797C13.7106 5.49689 13.8681 5.86803 14.1431 6.14308L15.039 7.03901C15.5844 7.58439 15.6273 8.45447 15.1382 9.05086L13.997 10.4424C13.7771 10.7106 13.6569 11.0467 13.6569 11.3936V12.1569C13.6569 12.9853 12.9853 13.6569 12.1569 13.6569H10.918C10.5137 13.6569 10.1265 13.82 9.84425 14.1094L9.07376 14.8993C8.48511 15.5027 7.51494 15.5027 6.92629 14.8993L6.1558 14.1094C5.8735 13.82 5.48634 13.6569 5.08206 13.6569H3.81272C2.99628 13.6569 2.32977 13.0039 2.31303 12.1876L2.29618 11.366C2.28941 11.036 2.17398 10.7174 1.9678 10.4597L0.838717 9.04837C0.361248 8.45153 0.408902 7.59112 0.94936 7.05066L1.85695 6.14308C2.13199 5.86803 2.28944 5.49689 2.29607 5.10797L2.31848 3.79268C2.33225 2.98426 2.98428 2.33222 3.79271 2.31845L5.10799 2.29604C5.49691 2.28942 5.86805 2.13197 6.1431 1.85692L6.93936 1.06066ZM8.00024 12.5491C7.72691 12.5491 7.49191 12.4521 7.29524 12.2583C7.09858 12.0612 7.00024 11.8239 7.00024 11.5465C7.00024 11.2725 7.09858 11.0386 7.29524 10.8448C7.49191 10.6476 7.72691 10.5491 8.00024 10.5491C8.27024 10.5491 8.50358 10.6476 8.70024 10.8448C8.90024 11.0386 9.00024 11.2725 9.00024 11.5465C9.00024 11.7303 8.95358 11.8991 8.86024 12.0528C8.77024 12.2032 8.65024 12.3235 8.50024 12.4137C8.35024 12.5039 8.18358 12.5491 8.00024 12.5491ZM7.98181 7.03718C7.77885 7.23702 7.6288 7.49214 7.5258 7.7929L7.52512 7.79492C7.4797 7.93132 7.44008 8.05413 7.41277 8.20471C7.38549 8.35506 7.37174 8.52527 7.36907 8.76256V8.76537C7.36907 9.19226 7.71513 9.53831 8.14201 9.53831H8.20338C8.62942 9.53831 8.97495 9.19362 8.97631 8.76789C8.97878 8.63661 8.9875 8.56399 8.99967 8.50644C9.01055 8.45498 9.02458 8.41181 9.04804 8.33963L9.04805 8.3396L9.06438 8.28917C9.10933 8.14955 9.17805 8.0581 9.30121 7.929C9.41858 7.80855 9.5771 7.68639 9.78172 7.56431C10.0312 7.42102 10.2487 7.25437 10.4317 7.06322C10.621 6.86825 10.7679 6.64474 10.8704 6.39568C10.9749 6.13899 11.0239 5.85379 11.0239 5.55083C11.0239 5.10606 10.9134 4.70579 10.6851 4.35961C10.4615 4.0142 10.1483 3.74939 9.75446 3.56382C9.35864 3.37482 8.90516 3.2844 8.40069 3.2844C7.93612 3.2844 7.50456 3.3694 7.11084 3.54264C6.71467 3.71822 6.3925 3.9792 6.14871 4.32589C6.01832 4.50984 5.92028 4.71433 5.85385 4.93765C5.78026 5.18505 5.85356 5.42017 6.00184 5.58563C6.14691 5.74752 6.36386 5.84523 6.59551 5.84523H6.64399C7.0915 5.84523 7.38256 5.48562 7.52954 5.19379C7.54644 5.16024 7.56514 5.1294 7.58553 5.10102L7.58654 5.09959C7.68013 4.96738 7.79452 4.87417 7.93166 4.81426C8.08051 4.74923 8.23611 4.71677 8.40069 4.71677C8.58538 4.71677 8.74532 4.75392 8.88533 4.82373L8.88911 4.82554C9.03111 4.89339 9.1408 4.9878 9.2234 5.10998C9.3002 5.22357 9.34311 5.36318 9.34311 5.53973C9.34311 5.68949 9.3139 5.82154 9.25978 5.93423C9.20115 6.05629 9.12172 6.1644 9.02008 6.25951C8.91026 6.36227 8.78568 6.4563 8.6456 6.54129C8.39097 6.68805 8.16891 6.85295 7.98181 7.03718Z" fill="#6F737A"/>
</g>
</svg>
