<svg width="16" height="16" viewBox="0 0 16 16" fill="none" xmlns="http://www.w3.org/2000/svg">
    <g id="cocoaPods">
        <rect id="Rectangle 1477" x="1.5" y="1.5" width="13" height="13" rx="6.5" stroke="#DB5C5C"/>
        <g id="Union">
            <path d="M5.47032 10.6096C5.91576 10.8696 6.41514 10.9997 6.96848 10.9997C7.43881 10.9997 7.87456 10.9015 8.27573 10.705C8.67689 10.5086 9.00198 10.2458 9.25097 9.91653C9.49997 9.5873 9.64246 9.2304 9.67843 8.84583H8.59943C8.54963 9.0478 8.44588 9.23731 8.28818 9.41438C8.13324 9.59145 7.93957 9.73393 7.70718 9.84183C7.47478 9.94696 7.22716 9.99953 6.96432 9.99953C6.62126 9.99953 6.31278 9.91376 6.03888 9.74223C5.76774 9.57069 5.55471 9.33276 5.39978 9.02843C5.24484 8.7241 5.16738 8.37964 5.16738 7.99508C5.16738 7.61051 5.24484 7.26606 5.39978 6.96173C5.55471 6.6574 5.76774 6.41946 6.03888 6.24793C6.31278 6.0764 6.62126 5.99063 6.96432 5.99063C7.22716 5.99063 7.47478 6.04458 7.70718 6.15248C7.93957 6.26038 8.13324 6.40425 8.28818 6.58408C8.44588 6.76114 8.54963 6.95343 8.59943 7.16093H9.67843C9.64246 6.7736 9.49997 6.41393 9.25097 6.08193C9.00198 5.74993 8.67689 5.48571 8.27573 5.28928C7.87456 5.09008 7.43881 4.99048 6.96848 4.99048C6.41514 4.99048 5.91576 5.12051 5.47032 5.38058C5.02489 5.64065 4.67629 5.99893 4.42453 6.45543C4.17276 6.91193 4.04688 7.42514 4.04688 7.99508C4.04688 8.56501 4.17276 9.07823 4.42453 9.53473C4.67629 9.99123 5.02489 10.3495 5.47032 10.6096Z" fill="#DB5C5C"/>
            <path d="M10.1799 6.03671L11.1135 5.67834L12.0063 8.00415L12.0107 8.00583L12.0088 8.0107L12.0094 8.0123L12.008 8.01285L11.1148 10.3398L10.1812 9.98142L10.9377 8.0107L10.1799 6.03671Z" fill="#DB5C5C"/>
        </g>
    </g>
</svg>
