<svg xmlns="http://www.w3.org/2000/svg" viewBox="0 0 40 40" height="40" width="40">
    <path
            fill="#000000"
            d="M 6.7211697,8.0631532 2,31.651485 H 8.4815076
            L 11.42765,15.856456 c 0,0 2.553321,-2.227504 4.517415,
            -2.025001 1.964094,0.202488 1.964094,2.245019 1.964094,
            2.245019 l -2.749731,15.592528 h 6.484482 l 3.139575,
            -15.812546 c 0,0 2.160505,-2.227504 4.321006,-2.025001
            2.160504,0.202488 1.767686,2.447519 1.767686,2.447519
            l -2.946141,15.372511 h 6.677919 L 37.942913,13.64647
            c 0.392818,-2.852522 -1.290853,-5.3210312 -3.535367,
            -5.5833168 -2.244516,-0.2622881 -4.517417,0.3007904
            -6.48151,1.533311 -1.964095,1.2325188 -3.142551,2.8350048
            -3.142551,2.8350048 0,0 -1.013646,-4.1060302 -4.124595,
            -4.3683158 -3.11095,-0.2622881 -4.517415,0.5032905
            -5.892281,1.3132934 -1.374866,0.8100004 -2.160504,
            1.8400184 -2.160504,1.8400184 l 0.541102,-3.1533118 z"
    />
</svg>
