<svg width="16" height="16" viewBox="0 0 16 16" fill="none" xmlns="http://www.w3.org/2000/svg">
    <path d="M16 0H0V16H16V0Z" fill="#087CFA"/>
    <path d="M15 1H1V15H15V1Z" fill="black"/>
    <path d="M9 12H3V13H9V12Z" fill="white"/>
    <path d="M6.0125 4.09998V3.00623H3.03125V4.09998H3.86875V7.87498H3.03125V8.96873H6.0125V7.87498H5.18125V4.09998H6.0125Z"
          fill="white"/>
    <path d="M8.87493 9.05623C8.40618 9.05623 8.01868 8.96873 7.70618 8.79373C7.39368 8.61873 7.13118 8.40623 6.92493 8.16248L7.74993 7.24373C7.91868 7.43123 8.09368 7.57498 8.26243 7.68123C8.43743 7.78748 8.62493 7.83748 8.83743 7.83748C9.08743 7.83748 9.28118 7.76248 9.42493 7.59998C9.56868 7.44373 9.63743 7.19373 9.63743 6.84373V3.00623H10.9812V6.90623C10.9812 7.26248 10.9312 7.57498 10.8374 7.83748C10.7437 8.09998 10.5999 8.31873 10.4187 8.49998C10.2374 8.68123 10.0124 8.81873 9.74993 8.91248C9.49368 9.00623 9.19993 9.05623 8.87493 9.05623Z"
          fill="white"/>
</svg>
